<svg width="22" height="28" viewBox="0 0 22 28" fill="none" xmlns="http://www.w3.org/2000/svg">
<path d="M4.23828 27.582C2.94141 27.582 1.95312 27.2461 1.27344 26.5742C0.601562 25.9023 0.265625 24.9258 0.265625 23.6445V12.2305C0.265625 10.9414 0.601562 9.96484 1.27344 9.30078C1.95312 8.62891 2.94141 8.29297 4.23828 8.29297H7.57812V10.8945H4.44922C3.93359 10.8945 3.53906 11.0273 3.26562 11.293C3 11.5508 2.86719 11.9492 2.86719 12.4883V23.375C2.86719 23.9141 3 24.3125 3.26562 24.5703C3.53906 24.8359 3.93359 24.9688 4.44922 24.9688H17.5391C18.0469 24.9688 18.4375 24.8359 18.7109 24.5703C18.9844 24.3125 19.1211 23.9141 19.1211 23.375V12.4883C19.1211 11.9492 18.9844 11.5508 18.7109 11.293C18.4375 11.0273 18.0469 10.8945 17.5391 10.8945H14.4102V8.29297H17.7617C19.0586 8.29297 20.043 8.62891 20.7148 9.30078C21.3945 9.96484 21.7344 10.9414 21.7344 12.2305V23.6445C21.7344 24.9258 21.3945 25.9023 20.7148 26.5742C20.043 27.2461 19.0586 27.582 17.7617 27.582H4.23828ZM10.9883 17.9375C10.6602 17.9375 10.3789 17.8203 10.1445 17.5859C9.91016 17.3516 9.79297 17.0781 9.79297 16.7656V5.10547L9.89844 3.38281L9.3125 4.16797L7.74219 5.84375C7.52344 6.07031 7.25391 6.18359 6.93359 6.18359C6.65234 6.18359 6.40625 6.08984 6.19531 5.90234C5.99219 5.71484 5.89062 5.47266 5.89062 5.17578C5.89062 4.89453 6 4.64062 6.21875 4.41406L10.0625 0.722656C10.2266 0.566406 10.3828 0.460938 10.5312 0.40625C10.6797 0.34375 10.832 0.3125 10.9883 0.3125C11.1523 0.3125 11.3086 0.34375 11.457 0.40625C11.6133 0.460938 11.7695 0.566406 11.9258 0.722656L15.7695 4.41406C15.9883 4.64062 16.0977 4.89453 16.0977 5.17578C16.0977 5.47266 15.9922 5.71484 15.7812 5.90234C15.5703 6.08984 15.3242 6.18359 15.043 6.18359C14.7227 6.18359 14.457 6.07031 14.2461 5.84375L12.6875 4.16797L12.1016 3.38281L12.1953 5.10547V16.7656C12.1953 17.0781 12.0781 17.3516 11.8438 17.5859C11.6172 17.8203 11.332 17.9375 10.9883 17.9375Z" fill="#949895"/>
</svg>
